<?xml version="1.0" encoding="iso-8859-1"?>
<!-- Generator: Adobe Illustrator 19.0.0, SVG Export Plug-In . SVG Version: 6.00 Build 0)  -->
<svg version="1.1" id="Capa_1" xmlns="http://www.w3.org/2000/svg" xmlns:xlink="http://www.w3.org/1999/xlink" x="0px" y="0px"
	 viewBox="0 0 480 480" style="enable-background:new 0 0 480 480;" xml:space="preserve">
<linearGradient id="SVGID_1_" gradientUnits="userSpaceOnUse" x1="-56.81" y1="587.625" x2="2.834" y2="587.625" gradientTransform="matrix(8 0 0 -8 455 4761)">
	<stop  offset="0" style="stop-color:#FC4A1A"/>
	<stop  offset="1" style="stop-color:#F7B733"/>
</linearGradient>
<path style="fill:url(#SVGID_1_);" d="M72,68c4.418,0,8-3.582,8-8s-3.582-8-8-8c-13.255,0-24-10.745-24-24c0-4.418-3.582-8-8-8
	s-8,3.582-8,8c0,13.255-10.745,24-24,24c-4.418,0-8,3.582-8,8s3.582,8,8,8c13.255,0,24,10.745,24,24c0,4.418,3.582,8,8,8
	s8-3.582,8-8C48,78.745,58.745,68,72,68z M40,68c-2.276-3.031-4.969-5.724-8-8c3.031-2.276,5.724-4.969,8-8
	c2.276,3.031,4.969,5.724,8,8C44.969,62.276,42.276,64.969,40,68z"/>
<g>
	
		<linearGradient id="SVGID_2_" gradientUnits="userSpaceOnUse" x1="-56.81" y1="574.625" x2="2.834" y2="574.625" gradientTransform="matrix(8 0 0 -8 455 4761)">
		<stop  offset="0" style="stop-color:#FC4A1A"/>
		<stop  offset="1" style="stop-color:#F7B733"/>
	</linearGradient>
	<path style="fill:url(#SVGID_2_);" d="M136,108c-30.928,0-56,25.072-56,56s25.072,56,56,56s56-25.072,56-56
		C191.96,133.089,166.911,108.04,136,108z M136,204c-22.091,0-40-17.909-40-40s17.909-40,40-40s40,17.909,40,40
		C175.974,186.08,158.08,203.974,136,204z"/>
	
		<linearGradient id="SVGID_3_" gradientUnits="userSpaceOnUse" x1="-56.81" y1="574.625" x2="2.834" y2="574.625" gradientTransform="matrix(8 0 0 -8 455 4761)">
		<stop  offset="0" style="stop-color:#FC4A1A"/>
		<stop  offset="1" style="stop-color:#F7B733"/>
	</linearGradient>
	<path style="fill:url(#SVGID_3_);" d="M328,108c-30.928,0-56,25.072-56,56s25.072,56,56,56s56-25.072,56-56
		C383.96,133.089,358.911,108.04,328,108z M328,204c-22.091,0-40-17.909-40-40s17.909-40,40-40s40,17.909,40,40
		C367.974,186.08,350.08,203.974,328,204z"/>
	
		<linearGradient id="SVGID_4_" gradientUnits="userSpaceOnUse" x1="-56.81" y1="561.6265" x2="2.834" y2="561.6265" gradientTransform="matrix(8 0 0 -8 455 4761)">
		<stop  offset="0" style="stop-color:#FC4A1A"/>
		<stop  offset="1" style="stop-color:#F7B733"/>
	</linearGradient>
	<path style="fill:url(#SVGID_4_);" d="M432,140h-19.408c-13.201-46.719-61.775-73.891-108.494-60.69
		c-29.403,8.308-52.382,31.287-60.69,60.69h-22.816c-13.255-46.759-61.905-73.919-108.664-60.664S38.009,141.241,51.264,188
		s61.905,73.919,108.664,60.664c29.376-8.327,52.337-31.288,60.664-60.664h22.816c13.201,46.719,61.775,73.891,108.494,60.69
		c29.403-8.308,52.382-31.287,60.69-60.69H432v272h48V92h-48L432,140z M136,236c-39.765,0-72-32.236-72-72s32.235-72,72-72
		s72,32.236,72,72C207.956,203.746,175.746,235.956,136,236z M240,172h-16v-16h16V172z M328,236c-39.764,0-72-32.236-72-72
		s32.236-72,72-72s72,32.236,72,72C399.956,203.746,367.746,235.956,328,236z M416,156h48v16h-48V156z M464,444h-16v-64h16V444z
		 M464,364h-16V188h16V364z M464,108v32h-16v-32H464z"/>
</g>
<g>
</g>
<g>
</g>
<g>
</g>
<g>
</g>
<g>
</g>
<g>
</g>
<g>
</g>
<g>
</g>
<g>
</g>
<g>
</g>
<g>
</g>
<g>
</g>
<g>
</g>
<g>
</g>
<g>
</g>
</svg>
