<?xml version="1.0" encoding="iso-8859-1"?>
<!-- Generator: Adobe Illustrator 19.0.0, SVG Export Plug-In . SVG Version: 6.00 Build 0)  -->
<svg version="1.1" id="Capa_1" xmlns="http://www.w3.org/2000/svg" xmlns:xlink="http://www.w3.org/1999/xlink" x="0px" y="0px"
	 viewBox="0 0 451.12 451.12" style="enable-background:new 0 0 451.12 451.12;" xml:space="preserve">
<path style="fill:#FFFFFF;" d="M344.32,377.271h70.08c4.816,0,8.72,3.904,8.72,8.72v7.2c0,4.816-3.904,8.72-8.72,8.72h-70.08
	c-4.816,0-8.72-3.904-8.72-8.72v-7.2C335.6,381.175,339.504,377.271,344.32,377.271z"/>
<path style="fill:#F7B239;" d="M401.76,122.791h-45.04h-3.68l-2.64-2.64c-16.35-16.392-16.316-42.934,0.076-59.284
	s42.934-16.316,59.284,0.076c16.32,16.362,16.32,42.846,0,59.208l-3.28,3.28L401.76,122.791z"/>
<g>
	<path style="fill:#FFFFFF;" d="M37.12,377.271h70.08c4.816,0,8.72,3.904,8.72,8.72v7.2c0,4.816-3.904,8.72-8.72,8.72H37.12
		c-4.816,0-8.72-3.904-8.72-8.72v-7.2C28.4,381.175,32.304,377.271,37.12,377.271z"/>
	<path style="fill:#FFFFFF;" d="M356.72,122.791h45.2v254.48h-45.2V122.791z"/>
</g>
<path style="fill:#F76A2B;" d="M225.76,226.871c-45.567-0.135-90.085-13.685-128-38.96l-3.6-2.4v-53.04l12.72,9.44
	c34.173,25.71,75.716,39.736,118.48,40c42.601-0.356,83.964-14.377,118-40l12.72-9.36v53.04l-3.6,2.4
	C314.92,212.999,270.882,226.51,225.76,226.871z"/>
<path style="fill:#F7B239;" d="M94.4,122.791H49.76h-3.68l-2.64-2.64c-16.35-16.392-16.316-42.934,0.076-59.284
	S86.45,44.552,102.8,60.944c16.32,16.362,16.32,42.846,0,59.208l-3.28,3.28L94.4,122.791z"/>
<path style="fill:#FFFFFF;" d="M49.6,122.791h45.2v254.48H49.6V122.791z"/>
<path style="fill:#442926;" d="M443.52,393.591h-12.48c0,0,0-0.48,0-0.72v-7.12c-0.343-8.997-7.717-16.124-16.72-16.16h-4.56v-238.4
	c12.711-9.358,20.199-24.216,20.16-40c-0.006-27.57-22.361-49.915-49.931-49.909c-27.57,0.006-49.915,22.361-49.909,49.931
	c0.003,14.572,6.374,28.416,17.44,37.897c-69.938,59.318-172.468,59.521-242.64,0.48c21.418-17.43,24.651-48.923,7.221-70.341
	S63.178,34.599,41.76,52.029s-24.651,48.923-7.221,70.341c2.154,2.647,4.574,5.067,7.221,7.221v240H37.2
	c-9.216,0.044-16.676,7.504-16.72,16.72v7.28c0,0,0,0.48,0,0.72H8c-4.418,0-8,3.582-8,8s3.582,8,8,8h128c4.418,0,8-3.582,8-8
	s-3.582-8-8-8h-12.16c0,0,0-0.48,0-0.72v-7.12c0.044-9.247-7.393-16.792-16.64-16.88h-4.4v-169.44
	c75.438,46.393,170.562,46.393,246,0v169.44h-4.4c-9.216,0.044-16.676,7.504-16.72,16.72v7.28c0,0,0,0.48,0,0.72h-12.56
	c-4.418,0-8,3.582-8,8s3.582,8,8,8h128c4.418,0,8-3.582,8-8s-3.582-8-8-8L443.52,393.591z M346.24,91.191
	c-0.028-18.733,15.137-33.942,33.87-33.97c18.733-0.028,33.942,15.137,33.97,33.87c0.013,9.045-3.587,17.721-10,24.1
	c-0.698-0.232-1.425-0.367-2.16-0.4h-45.2H356C349.789,108.501,346.286,100.031,346.24,91.191L346.24,91.191z M394.24,131.191v238.4
	h-29.52v-238.8L394.24,131.191z M107.2,385.591c0.398,0,0.72,0.322,0.72,0.72l0,0v7.28c0,0.398-0.322,0.72-0.72,0.72l0,0h-70
	c-0.395,0.044-0.751-0.24-0.796-0.636c-0.003-0.028-0.005-0.056-0.004-0.084v-7.12c-0.092-0.387,0.147-0.775,0.533-0.867
	c0.087-0.021,0.178-0.025,0.267-0.013H107.2z M57.76,369.591v-238.8h29.2v238.8H57.76z M96.88,115.191
	c-0.698-0.232-1.425-0.367-2.16-0.4H49.76h-0.72c-13.238-13.255-13.225-34.732,0.03-47.97s34.732-13.225,47.97,0.03
	c13.227,13.243,13.227,34.697,0,47.94L96.88,115.191z M102.72,181.191v-32.88c35.457,26.796,78.598,41.466,123.04,41.84
	c44.298-0.339,87.316-14.893,122.72-41.52v32.96c-74.364,49.779-171.446,49.653-245.68-0.32L102.72,181.191z M415.12,393.591
	c0,0.398-0.322,0.72-0.72,0.72l0,0h-70.08c-0.398,0-0.72-0.322-0.72-0.72l0,0v-7.12c0-0.398,0.322-0.72,0.72-0.72l0,0h70
	c0.398,0,0.72,0.322,0.72,0.72l0,0L415.12,393.591z"/>
<g>
</g>
<g>
</g>
<g>
</g>
<g>
</g>
<g>
</g>
<g>
</g>
<g>
</g>
<g>
</g>
<g>
</g>
<g>
</g>
<g>
</g>
<g>
</g>
<g>
</g>
<g>
</g>
<g>
</g>
</svg>
